<?xml version="1.0" encoding="utf-8"?>
<!-- Generator: Adobe Illustrator 21.0.0, SVG Export Plug-In . SVG Version: 6.00 Build 0)  -->
<svg version="1.1" id="Calque_1" xmlns="http://www.w3.org/2000/svg" xmlns:xlink="http://www.w3.org/1999/xlink" x="0px" y="0px"
	 viewBox="0 0 196.5 68.5" style="enable-background:new 0 0 196.5 68.5;" xml:space="preserve">
<style type="text/css">
	.st0{fill:#FFFFFF;}
	.st1{font-family:'BrandonText-Medium';}
	.st2{font-size:51.9276px;}
	.st3{letter-spacing:-4;}
</style>
<g>
	<g>
		<polyline class="st0" points="25.2,54.8 32.7,39.9 0,0.8 		"/>
		<path class="st0" d="M61.8,1.3c-6.6-1.6-13.5,1-15.6,9.4c-1.7,6.9,2.5,13.9,9.4,15.6c6.9,1.7,14.1-3,15.8-9.9
			C73.1,9.5,68.7,3,61.8,1.3z M55.4,4.1c0.5-0.4,0.9,0.4,0.9,0.4c0.1,0.2,3.4,5,10.9,4.6c0,0,0.6-0.1,0.7,0.5c0,0.6-0.6,0.6-0.6,0.6
			c-8.2,0.5-11.8-4.9-11.9-5.1C55.5,5.2,54.9,4.5,55.4,4.1z M62.3,22c-8.2,0.5-11.8-4.9-11.9-5.1c0,0-0.6-0.7,0-1
			c0.5-0.4,0.9,0.4,0.9,0.4c0.1,0.2,3.4,5,10.9,4.6c0,0,0.6-0.1,0.7,0.5C62.9,22,62.3,22,62.3,22z M67.6,17.2
			c-11.9,0.7-17.2-7.1-17.4-7.4c0,0-0.8-1,0-1.5c0.8-0.5,1.4,0.6,1.4,0.6c0.2,0.3,5,7.4,16,6.7c0,0,0.9-0.1,1,0.7
			C68.5,17.2,67.6,17.2,67.6,17.2z"/>
		<text transform="matrix(1 0 0 1 53.2852 66.4023)"><tspan x="0" y="0" class="st0 st1 st2">oxx</tspan><tspan x="77.3" y="0" class="st0 st1 st2 st3">r</tspan><tspan x="92.9" y="0" class="st0 st1 st2">.i</tspan><tspan x="118.7" y="0" class="st0 st1 st2">n</tspan></text>
	</g>
	<path class="st0" d="M50.8,26.5c-4.7-2.3-6.4-6.6-6.4-6.6L27.6,53.6c-1.6,4.7,0.3,9.2,4.6,11.3v0c4.4,2.1,9.6,0,11.6-4.2l16.4-32.9
		C60.2,27.8,55.8,29,50.8,26.5z M48.2,33.9l-2.6,5.2c-0.3,0.6-1.1,0.9-1.7,0.6c-0.6-0.3-0.9-1.1-0.6-1.7l2.6-5.2
		c0.3-0.6,1.1-0.9,1.7-0.6C48.3,32.5,48.5,33.3,48.2,33.9z"/>
</g>
</svg>
