<?xml version="1.0" encoding="iso-8859-1"?>
<!-- Generator: Adobe Illustrator 19.1.0, SVG Export Plug-In . SVG Version: 6.00 Build 0)  -->
<!DOCTYPE svg PUBLIC "-//W3C//DTD SVG 1.1//EN" "http://www.w3.org/Graphics/SVG/1.1/DTD/svg11.dtd">
<svg version="1.1" id="Calque_1" xmlns="http://www.w3.org/2000/svg" xmlns:xlink="http://www.w3.org/1999/xlink" x="0px" y="0px"
	 viewBox="0 0 196.5 68.5" style="enable-background:new 0 0 196.5 68.5;" xml:space="preserve">
<g>
	<g>
		<g>
			<polyline style="fill:#FFFFFF;" points="29.458,54.675 36.844,40.05 4.902,1.885 			"/>
		</g>
		<g>
			<path style="fill:#FFFFFF;" d="M65.22,2.434c-6.485-1.609-13.178,1.008-15.199,9.157c-1.669,6.726,2.431,13.531,9.157,15.199
				c6.726,1.669,13.753-2.943,15.422-9.668C76.268,10.396,71.945,4.102,65.22,2.434z M58.994,5.159
				c0.507-0.351,0.913,0.418,0.913,0.418c0.133,0.201,3.335,4.921,10.677,4.487c0,0,0.604-0.082,0.645,0.501
				c0.04,0.583-0.581,0.576-0.581,0.576c-7.972,0.471-11.476-4.744-11.621-4.966C59.026,6.174,58.488,5.51,58.994,5.159z
				 M65.661,22.594c-7.972,0.471-11.476-4.744-11.621-4.966c0,0-0.538-0.664-0.032-1.015c0.507-0.351,0.913,0.418,0.913,0.418
				c0.133,0.201,3.335,4.921,10.677,4.487c0,0,0.604-0.082,0.645,0.501C66.283,22.601,65.661,22.594,65.661,22.594z M70.899,17.911
				c-11.633,0.688-16.745-6.922-16.957-7.246c0,0-0.785-0.969-0.046-1.481c0.739-0.512,1.332,0.61,1.332,0.61
				c0.194,0.294,4.866,7.18,15.579,6.547c0,0,0.881-0.12,0.94,0.731C71.806,17.921,70.899,17.911,70.899,17.911z"/>
		</g>
		<g>
			<path style="fill:#FFFFFF;" d="M71.102,42.026c6.488,0,11.76,5.576,11.76,12.166c0,6.69-5.272,12.317-11.76,12.317
				s-11.76-5.627-11.76-12.317C59.342,47.603,64.613,42.026,71.102,42.026z M71.102,63.113c4.613,0,8.009-4.055,8.009-8.921
				c0-4.765-3.396-8.77-8.009-8.77c-4.612,0-8.06,4.004-8.06,8.77C63.042,59.059,66.489,63.113,71.102,63.113z"/>
			<path style="fill:#FFFFFF;" d="M85.95,64.432l7.806-10.392l-7.604-9.986c-0.558-0.76-0.203-1.521,0.76-1.521h2.18
				c0.405,0,0.76,0.203,0.912,0.456l5.88,8.11h0.101l6.083-8.11c0.203-0.253,0.507-0.456,0.912-0.456h2.18
				c0.963,0,1.318,0.76,0.761,1.521l-7.604,9.884l7.654,10.493c0.558,0.76,0.152,1.521-0.76,1.521h-1.926
				c-0.354,0-0.709-0.254-0.912-0.507l-6.387-8.82h-0.101l-6.336,8.871c-0.203,0.253-0.558,0.456-0.912,0.456H86.71
				C85.696,65.952,85.393,65.141,85.95,64.432z"/>
			<path style="fill:#FFFFFF;" d="M109.314,64.432l7.807-10.392l-7.604-9.986c-0.558-0.76-0.203-1.521,0.76-1.521h2.18
				c0.405,0,0.76,0.203,0.913,0.456l5.88,8.11h0.101l6.083-8.11c0.203-0.253,0.507-0.456,0.913-0.456h2.179
				c0.963,0,1.318,0.76,0.761,1.521l-7.604,9.884l7.654,10.493c0.558,0.76,0.152,1.521-0.76,1.521h-1.926
				c-0.354,0-0.709-0.254-0.912-0.507l-6.387-8.82h-0.101l-6.336,8.871c-0.203,0.253-0.558,0.456-0.912,0.456h-1.926
				C109.061,65.952,108.757,65.141,109.314,64.432z"/>
			<path style="fill:#FFFFFF;" d="M134.605,43.648c0-0.557,0.507-1.115,1.115-1.115h0.811c0.457,0,0.862,0.253,1.014,0.811
				l0.406,1.672c0,0,2.332-2.991,7.198-2.991c1.774,0,4.664,0.254,4.106,1.876l-0.659,1.825c-0.253,0.76-0.811,0.811-1.369,0.558
				s-1.419-0.659-2.535-0.659c-4.511,0-6.336,2.991-6.336,2.991v16.221c0,0.608-0.558,1.115-1.115,1.115h-1.521
				c-0.608,0-1.115-0.507-1.115-1.115V43.648z"/>
			<path style="fill:#FFFFFF;" d="M149.557,59.818c1.875,0,3.346,1.471,3.346,3.295c0,1.825-1.47,3.396-3.346,3.396
				c-1.825,0-3.295-1.571-3.295-3.396C146.262,61.289,147.732,59.818,149.557,59.818z"/>
			<path style="fill:#FFFFFF;" d="M158.831,33.764c0-1.622,1.216-2.838,2.737-2.838c1.571,0,2.788,1.216,2.788,2.838
				c0,1.47-1.217,2.737-2.788,2.737C160.047,36.501,158.831,35.234,158.831,33.764z M159.794,43.648
				c0-0.557,0.507-1.115,1.115-1.115h1.521c0.558,0,1.115,0.558,1.115,1.115v21.188c0,0.608-0.557,1.115-1.115,1.115h-1.521
				c-0.608,0-1.115-0.507-1.115-1.115V43.648z"/>
			<path style="fill:#FFFFFF;" d="M171.552,43.648c0-0.557,0.507-1.115,1.115-1.115h0.811c0.507,0,0.811,0.203,0.913,0.709
				l0.507,1.774c0,0,2.991-2.991,7.857-2.991c6.792,0,8.465,4.41,8.465,10.442v12.368c0,0.608-0.558,1.115-1.115,1.115h-1.521
				c-0.608,0-1.115-0.507-1.115-1.115V51.962c0-4.461-1.521-6.539-4.967-6.539c-4.41,0-7.198,3.244-7.198,3.244v16.17
				c0,0.608-0.558,1.115-1.115,1.115h-1.521c-0.608,0-1.115-0.507-1.115-1.115V43.648z"/>
		</g>
	</g>
	<g>
		<path style="fill:#FFFFFF;" d="M55.435,27.517c-4.696-2.321-6.412-6.597-6.412-6.597L32.359,54.453
			c-1.625,4.654,0.32,9.184,4.62,11.218v0c4.341,2.122,9.538,0.034,11.508-4.152l16.302-32.717
			C64.789,28.803,60.455,29.98,55.435,27.517z M52.891,34.915l-2.579,5.143c-0.316,0.629-1.089,0.886-1.719,0.571
			c-0.629-0.316-0.886-1.089-0.57-1.718l2.579-5.143c0.316-0.629,1.089-0.886,1.719-0.571C52.95,33.513,53.206,34.286,52.891,34.915
			z"/>
	</g>
</g>
</svg>
